<svg width="20" height="13" viewBox="0 0 20 13" fill="none" xmlns="http://www.w3.org/2000/svg">
<path d="M15 13V10H12V8H15V5H17V8H20V10H17V13H15ZM9 10H5C3.61667 10 2.4375 9.5125 1.4625 8.5375C0.4875 7.5625 0 6.38333 0 5C0 3.61667 0.4875 2.4375 1.4625 1.4625C2.4375 0.4875 3.61667 0 5 0H9V2H5C4.16667 2 3.45833 2.29167 2.875 2.875C2.29167 3.45833 2 4.16667 2 5C2 5.83333 2.29167 6.54167 2.875 7.125C3.45833 7.70833 4.16667 8 5 8H9V10ZM6 6V4H14V6H6ZM20 5H18C18 4.16667 17.7083 3.45833 17.125 2.875C16.5417 2.29167 15.8333 2 15 2H11V0H15C16.3833 0 17.5625 0.4875 18.5375 1.4625C19.5125 2.4375 20 3.61667 20 5Z" fill="white"/>
</svg>

