<svg width="150" height="150" viewBox="0 0 150 150" fill="none" xmlns="http://www.w3.org/2000/svg">
<path d="M115.938 102.5L51.4062 37.9688L70.1562 26.875C71.6146 26.0417 73.2292 25.625 75 25.625C76.7708 25.625 78.3854 26.0417 79.8438 26.875L114.375 47.3438C115.81 48.2073 116.924 49.3652 117.717 50.8175C118.51 52.2698 118.906 53.8202 118.906 55.4688V95.625C118.906 96.9556 118.646 98.2258 118.125 99.4355C117.604 100.645 116.875 101.667 115.938 102.5ZM70 123.906L35.625 103.75C34.1901 102.886 33.0762 101.729 32.2833 100.276C31.4903 98.824 31.0938 97.2735 31.0938 95.625V55.4688C31.0938 53.8202 31.4903 52.2698 32.2833 50.8175C33.0762 49.3652 34.1901 48.2073 35.625 47.3438L42.9688 42.9688L75.3125 75.3125L107.656 107.656L79.375 123.906C77.8825 124.74 76.3115 125.156 74.6619 125.156C73.0123 125.156 71.4583 124.74 70 123.906ZM58.4375 45L80.1562 66.7188L104.688 52.5L75 35.4688L58.4375 45ZM70.3125 113.125V78.125L40.625 61.0938V95.3125L70.3125 113.125ZM109.531 96.0938V61.0938L87.1875 73.75L109.531 96.0938ZM79.6875 113.125L100.625 100.625L79.6875 79.6875V113.125ZM130.156 143.594L124.062 137.5H107.969V128.125H116.562V129.375L19.6875 33.125H21.875V42.0312H12.5V25.9375L4.0625 17.5L10.7812 10.7812L136.875 136.875L130.156 143.594ZM137.5 107.969V124.062L128.125 114.688V107.969H137.5ZM42.0312 12.5V21.875H35.3125L25.9375 12.5H42.0312ZM42.0312 137.5H21.875C19.2969 137.5 17.0898 136.582 15.2539 134.746C13.418 132.91 12.5 130.703 12.5 128.125V107.969H21.875V128.125H42.0312V137.5ZM128.125 42.0312V21.875H107.969V12.5H128.125C130.703 12.5 132.91 13.418 134.746 15.2539C136.582 17.0898 137.5 19.2969 137.5 21.875V42.0312H128.125Z" fill="white"/>
</svg>
