<svg width="14" height="16" viewBox="0 0 14 16" fill="none" xmlns="http://www.w3.org/2000/svg">
<path d="M0.825684 9.41846C0.664551 9.41846 0.527832 9.35986 0.415527 9.24268C0.303223 9.12549 0.24707 8.98633 0.24707 8.8252V6.60596C0.24707 6.44482 0.303223 6.30566 0.415527 6.18848C0.527832 6.06641 0.664551 6.00537 0.825684 6.00537C0.996582 6.00537 1.13818 6.06641 1.25049 6.18848C1.36768 6.30566 1.42627 6.44482 1.42627 6.60596V8.8252C1.42627 8.98633 1.36768 9.12549 1.25049 9.24268C1.13818 9.35986 0.996582 9.41846 0.825684 9.41846ZM3.29395 12.4141C3.12793 12.4141 2.98877 12.3579 2.87646 12.2456C2.76416 12.1284 2.70801 11.9868 2.70801 11.8208V3.61035C2.70801 3.44434 2.76416 3.30273 2.87646 3.18555C2.98877 3.06836 3.12793 3.00977 3.29395 3.00977C3.46484 3.00977 3.60645 3.06836 3.71875 3.18555C3.83105 3.30273 3.88721 3.44434 3.88721 3.61035V11.8208C3.88721 11.9868 3.83105 12.1284 3.71875 12.2456C3.60645 12.3579 3.46484 12.4141 3.29395 12.4141ZM5.75488 15.3657C5.58887 15.3657 5.44971 15.3071 5.3374 15.1899C5.22998 15.0776 5.17627 14.9385 5.17627 14.7725V0.658691C5.17627 0.492676 5.22998 0.353516 5.3374 0.241211C5.44971 0.124023 5.58887 0.0654297 5.75488 0.0654297C5.92578 0.0654297 6.06738 0.124023 6.17969 0.241211C6.29688 0.353516 6.35547 0.492676 6.35547 0.658691V14.7725C6.35547 14.9385 6.29688 15.0776 6.17969 15.1899C6.06738 15.3071 5.92578 15.3657 5.75488 15.3657ZM8.22314 11.5205C8.05713 11.5205 7.91797 11.4644 7.80566 11.3521C7.69336 11.2397 7.63721 11.1006 7.63721 10.9346V4.49658C7.63721 4.33057 7.69336 4.19141 7.80566 4.0791C7.91797 3.96191 8.05713 3.90332 8.22314 3.90332C8.38916 3.90332 8.52832 3.96191 8.64062 4.0791C8.75781 4.19141 8.81641 4.33057 8.81641 4.49658V10.9346C8.81641 11.1006 8.75781 11.2397 8.64062 11.3521C8.52832 11.4644 8.38916 11.5205 8.22314 11.5205ZM10.6914 13.7397C10.5205 13.7397 10.3789 13.6812 10.2666 13.564C10.1543 13.4517 10.0981 13.3149 10.0981 13.1538V2.27734C10.0981 2.11621 10.1543 1.97705 10.2666 1.85986C10.3789 1.74268 10.5205 1.68408 10.6914 1.68408C10.8574 1.68408 10.9966 1.74268 11.1089 1.85986C11.2212 1.97705 11.2773 2.11621 11.2773 2.27734V13.1538C11.2773 13.3149 11.2212 13.4517 11.1089 13.564C10.9966 13.6812 10.8574 13.7397 10.6914 13.7397ZM13.1523 10.0483C12.9814 10.0483 12.8398 9.99219 12.7275 9.87988C12.6201 9.7627 12.5664 9.62354 12.5664 9.4624V5.96875C12.5664 5.80762 12.6201 5.66846 12.7275 5.55127C12.8398 5.43408 12.9814 5.37549 13.1523 5.37549C13.3184 5.37549 13.4575 5.43408 13.5698 5.55127C13.687 5.66846 13.7456 5.80762 13.7456 5.96875V9.4624C13.7456 9.62354 13.687 9.7627 13.5698 9.87988C13.4575 9.99219 13.3184 10.0483 13.1523 10.0483Z" fill="white"/>
</svg>

