<svg width="16" height="16" viewBox="0 0 16 16" fill="none" xmlns="http://www.w3.org/2000/svg">
    <path fill-rule="evenodd" clip-rule="evenodd" d="M16 0.446187C16 0.199892 15.8001 0 15.5538 0L3.06057 0C2.81427 0 2.61438 0.199892 2.61438 0.446187V12.9394C2.61438 13.1857 2.81427 13.3856 3.06057 13.3856H15.5538C15.8001 13.3856 16 13.1857 16 12.9394V0.446187ZM15.1076 0.892375V12.4932H3.50675V0.892375L15.1076 0.892375Z" fill="black"/>
    <path fill-rule="evenodd" clip-rule="evenodd" d="M0.892497 3.50688L2.50993 3.50688V2.6145L0.446309 2.6145C0.200013 2.6145 0.000121117 2.81439 0.000121117 3.06069V15.5539C0.000121117 15.8002 0.200013 16.0001 0.446309 16.0001H12.9396C13.1859 16.0001 13.3857 15.8002 13.3857 15.5539V13.4903H12.4934V15.1077H0.892497V3.50688Z" fill="black"/>
</svg>
