<?xml version="1.0"?>
<svg width="128" height="128" xmlns="http://www.w3.org/2000/svg" xmlns:svg="http://www.w3.org/2000/svg" version="1.1">
 <defs>
  <clipPath id="a">
   <path d="m23.7,23.7l77.3,0l0,77.3l-77.31,0l0.01,-77.3z" id="svg_1"/>
  </clipPath>
 </defs>
 <g class="layer">
  <title>Layer 1</title>
  <g clip-path="url(#a)" id="svg_2">
   <path d="m104.27,47.85l0,-4.03l-16.12,0l0,-16.12l-4.03,0l0,16.12l-16.12,0l0,-16.12l-4.03,0l0,16.12l-16.13,0l0,-16.12l-4.03,0l0,16.12l-16.12,0l0,4.03l16.12,0l0,16.12l-16.12,0l0,4.03l16.12,0l0,16.12l-16.12,0l0,4.03l16.12,0l0,16.12l4.03,0l0,-16.12l16.13,0l0,16.12l4.03,0l0,-16.12l16.12,0l0,16.12l4.03,0l0,-16.12l16.12,0l0,-4.03l-16.12,0l0,-16.12l16.12,0l0,-4.03l-16.12,0l0,-16.12l16.12,0zm-56.43,0l16.12,0l0,16.12l-16.12,0l0,-16.12zm0,36.27l0,-16.12l16.12,0l0,16.12l-16.12,0zm36.28,0l-16.12,0l0,-16.12l16.12,0l0,16.12zm0,-20.15l-16.12,0l0,-16.12l16.12,0l0,16.12z" fill="#f8f9fa" id="svg_3"/>
  </g>
 </g>
</svg>