<?xml version="1.0" encoding="UTF-8"?>
<svg width="128pt" height="128pt" version="1.1" viewBox="0 0 128 128" xmlns="http://www.w3.org/2000/svg">
 <defs>
  <clipPath id="a">
   <path d="m23.695 23.695h77.305v77.305h-77.305z"/>
  </clipPath>
 </defs>
 <g clip-path="url(#a)">
  <path d="m100.27 43.848v-4.0312h-16.121v-16.121h-4.0312v16.121h-16.121v-16.121h-4.0312v16.121h-16.121v-16.121h-4.0312v16.121h-16.121v4.0312h16.121v16.121h-16.121v4.0312h16.121v16.121h-16.121v4.0312h16.121v16.121h4.0312v-16.121h16.121v16.121h4.0312v-16.121h16.121v16.121h4.0312v-16.121h16.121v-4.0312h-16.121v-16.121h16.121v-4.0312h-16.121v-16.121zm-56.426 0h16.121v16.121h-16.121zm0 36.273v-16.121h16.121v16.121zm36.273 0h-16.121v-16.121h16.121zm0-20.152h-16.121v-16.121h16.121z" fill="#2fc1c1"/>
 </g>
</svg>
