<svg width="18" height="18" viewBox="0 0 18 18" fill="none" xmlns="http://www.w3.org/2000/svg">
<path d="M15.625 0.25H1.875C0.839453 0.25 0 1.08945 0 2.125V15.875C0 16.9105 0.839453 17.75 1.875 17.75H15.625C16.6605 17.75 17.5 16.9105 17.5 15.875V2.125C17.5 1.08945 16.6605 0.25 15.625 0.25ZM8.75 15.7969C7.75918 15.7969 6.95312 14.9908 6.95312 14C6.95312 13.0092 7.75918 12.2031 8.75 12.2031C9.74082 12.2031 10.5469 13.0092 10.5469 14C10.5469 14.9908 9.74082 15.7969 8.75 15.7969ZM10.3125 10.6667V10.7188C10.3125 10.9776 10.1026 11.1875 9.84375 11.1875H7.65625C7.39738 11.1875 7.1875 10.9776 7.1875 10.7188V10.5625C7.1875 8.95863 8.40344 8.3175 9.32234 7.80234C10.1103 7.36059 10.5932 7.06016 10.5932 6.47516C10.5932 5.70133 9.60613 5.18773 8.80813 5.18773C7.74602 5.18773 7.26758 5.70098 6.56973 6.58605C6.41172 6.78645 6.12207 6.82312 5.91875 6.66895L4.56332 5.64121C4.36535 5.49109 4.31914 5.21262 4.45727 5.00613C5.52344 3.41238 6.88117 2.51562 9.00996 2.51562C11.2118 2.51562 13.562 4.2343 13.562 6.5C13.562 9.50859 10.3125 9.55488 10.3125 10.6667Z" fill="white"/>
</svg>
