<svg width="18" height="15" viewBox="0 0 18 15" fill="none" xmlns="http://www.w3.org/2000/svg">
<path d="M0.950684 0.973633H17.0566C17.2324 0.973633 17.3716 1.02734 17.4741 1.13477C17.5815 1.24219 17.6353 1.38379 17.6353 1.55957V13.8789C17.6353 14.0547 17.5815 14.1938 17.4741 14.2964C17.3716 14.4038 17.2324 14.4575 17.0566 14.4575H0.950684C0.774902 14.4575 0.633301 14.4038 0.525879 14.2964C0.418457 14.1938 0.364746 14.0547 0.364746 13.8789V1.55957C0.364746 1.38379 0.418457 1.24219 0.525879 1.13477C0.633301 1.02734 0.774902 0.973633 0.950684 0.973633ZM1.75635 2.15283C1.61475 2.15283 1.54395 2.22363 1.54395 2.36523V13.0659C1.54395 13.2075 1.61475 13.2783 1.75635 13.2783H16.2437C16.3853 13.2783 16.4561 13.2075 16.4561 13.0659V2.36523C16.4561 2.22363 16.3853 2.15283 16.2437 2.15283H1.75635ZM2.76709 2.94385H15.2402C15.5283 2.94385 15.6724 3.08545 15.6724 3.36865V12.0698C15.6724 12.353 15.5283 12.4946 15.2402 12.4946H2.76709C2.479 12.4946 2.33496 12.353 2.33496 12.0698V3.36865C2.33496 3.08545 2.479 2.94385 2.76709 2.94385ZM3.23584 3.68359C3.12842 3.68359 3.07471 3.73975 3.07471 3.85205V11.5864C3.07471 11.6987 3.12842 11.7549 3.23584 11.7549H14.7642C14.8765 11.7549 14.9326 11.6987 14.9326 11.5864V3.85205C14.9326 3.73975 14.8765 3.68359 14.7642 3.68359H3.23584ZM15.1157 10.7734V11.4985C15.1157 11.7329 15.0547 11.9038 14.9326 12.0112C14.8105 12.1138 14.6519 12.165 14.4565 12.165H3.33838C3.14307 12.165 2.98438 12.1138 2.8623 12.0112C2.74512 11.9038 2.68652 11.7329 2.68652 11.4985V10.9126L4.86182 8.94238C4.98389 8.83496 5.10352 8.75684 5.2207 8.70801C5.34277 8.6543 5.46729 8.62744 5.59424 8.62744C5.73096 8.62744 5.86523 8.6543 5.99707 8.70801C6.12891 8.75684 6.25342 8.8374 6.37061 8.94971L7.42529 9.90918L10.0107 7.59473C10.1377 7.47266 10.272 7.38721 10.4136 7.33838C10.5601 7.28467 10.7139 7.25781 10.875 7.25781C11.0312 7.25781 11.1802 7.28711 11.3218 7.3457C11.4683 7.39941 11.605 7.4873 11.7319 7.60938L15.1157 10.7734ZM6.49512 7.66064C6.12402 7.66064 5.80664 7.52881 5.54297 7.26514C5.2793 6.99658 5.14746 6.6792 5.14746 6.31299C5.14746 5.94189 5.2793 5.62451 5.54297 5.36084C5.80664 5.09717 6.12402 4.96533 6.49512 4.96533C6.86621 4.96533 7.18359 5.09717 7.44727 5.36084C7.71094 5.62451 7.84277 5.94189 7.84277 6.31299C7.84277 6.6792 7.71094 6.99658 7.44727 7.26514C7.18359 7.52881 6.86621 7.66064 6.49512 7.66064Z" fill="white"/>
</svg>

