<svg width="15" height="15" viewBox="0 0 15 15" fill="none" xmlns="http://www.w3.org/2000/svg">
<path d="M9.3838 5.6338C9.3838 5.24648 9.24589 4.91491 8.97007 4.63908C8.69425 4.36326 8.36268 4.22535 7.97535 4.22535C7.85798 4.22535 7.74648 4.23709 7.64084 4.26056C7.53521 4.28404 7.43545 4.32512 7.34155 4.3838L9.22535 6.26761C9.28404 6.17371 9.32512 6.07394 9.34859 5.96831C9.37206 5.86268 9.3838 5.75117 9.3838 5.6338ZM12.3415 9.3838L11.3204 8.36268C11.6138 7.86972 11.8339 7.40904 11.9806 6.98063C12.1273 6.55223 12.2007 6.15024 12.2007 5.77465C12.2007 4.49531 11.7928 3.44777 10.9771 2.63204C10.1614 1.81631 9.1608 1.40845 7.97535 1.40845C7.45892 1.40845 6.97476 1.48768 6.52289 1.64613C6.07101 1.80458 5.66315 2.03639 5.2993 2.34155L4.29577 1.33803C4.80047 0.903756 5.36972 0.572183 6.00352 0.34331C6.63732 0.114437 7.2946 0 7.97535 0C9.46596 0 10.7776 0.5223 11.9102 1.5669C13.0428 2.6115 13.6092 4.01408 13.6092 5.77465C13.6092 6.33803 13.5035 6.91608 13.2923 7.5088C13.081 8.10153 12.7641 8.72653 12.3415 9.3838ZM9.57746 10.6338L3.82042 4.87676C3.79695 5.01761 3.77934 5.16432 3.76761 5.3169C3.75587 5.46948 3.75 5.62207 3.75 5.77465C3.75 6.60798 4.09624 7.56162 4.78873 8.63556C5.48122 9.70951 6.54343 10.9038 7.97535 12.2183C8.28052 11.9484 8.56514 11.6813 8.82922 11.4173C9.09331 11.1532 9.34272 10.892 9.57746 10.6338ZM13.9437 15L10.5634 11.6197C10.1878 12.0188 9.78873 12.4237 9.3662 12.8345C8.94366 13.2453 8.48005 13.662 7.97535 14.0845C6.08568 12.4765 4.6743 10.983 3.7412 9.60387C2.8081 8.22477 2.34155 6.94836 2.34155 5.77465C2.34155 5.39906 2.37089 5.04108 2.42958 4.7007C2.48826 4.36033 2.57042 4.03756 2.67606 3.73239L0 1.05634L1.00352 0.0528169L14.9472 13.9965L13.9437 15Z" fill="white"/>
</svg>

