<svg width="27" height="33" viewBox="0 0 27 33" fill="none" xmlns="http://www.w3.org/2000/svg">
<path d="M13.176 31.4641L13.5 31.7398L13.8241 31.4641C17.7566 28.1178 20.7156 24.9917 22.6824 22.0848C24.6482 19.1795 25.6667 16.4391 25.6667 13.875C25.6667 10.1114 24.4507 7.06563 21.9875 4.79387C19.5531 2.54867 16.7171 1.41663 13.5 1.41663C10.283 1.41663 7.44702 2.54867 5.01262 4.79387C2.54942 7.06563 1.33337 10.1114 1.33337 13.875C1.33337 16.4391 2.35193 19.1795 4.31769 22.0848C6.28444 24.9917 9.24347 28.1178 13.176 31.4641ZM13.5 17C14.4358 17 15.2493 16.6609 15.9135 15.9967C16.5777 15.3325 16.9167 14.519 16.9167 13.5833C16.9167 12.6475 16.5777 11.834 15.9135 11.1698C15.2493 10.5056 14.4358 10.1666 13.5 10.1666C12.5643 10.1666 11.7508 10.5056 11.0866 11.1698C10.4224 11.834 10.0834 12.6475 10.0834 13.5833C10.0834 14.519 10.4224 15.3325 11.0866 15.9967C11.7508 16.6609 12.5643 17 13.5 17ZM19.6788 19.5285C18.3307 21.6192 16.2765 23.9556 13.5 26.5379C10.7236 23.9556 8.6694 21.6192 7.3213 19.5285C5.9136 17.3454 5.25004 15.4661 5.25004 13.875C5.25004 11.3424 6.05262 9.30553 7.63745 7.7207C9.23006 6.12809 11.1737 5.33329 13.5 5.33329C15.8264 5.33329 17.77 6.12809 19.3626 7.7207C20.9475 9.30553 21.75 11.3424 21.75 13.875C21.75 15.4661 21.0865 17.3454 19.6788 19.5285Z" fill="#CF3232" stroke="black"/>
<path d="M12 28.9999L7.66987 24.7142H16.3301L12 28.9999Z" fill="#CF3232"/>
<circle cx="12.7709" cy="14.3125" r="10.9375" fill="#CF3232"/>
</svg>
