<svg width="15" height="15" viewBox="0 0 15 15" fill="none" xmlns="http://www.w3.org/2000/svg">
<path opacity="0.4" d="M13.3929 0H1.60714C1.1809 0 0.772119 0.169324 0.470721 0.470721C0.169323 0.772119 0 1.1809 0 1.60714L0 13.3929C0 13.8191 0.169323 14.2279 0.470721 14.5293C0.772119 14.8307 1.1809 15 1.60714 15H13.3929C13.8191 15 14.2279 14.8307 14.5293 14.5293C14.8307 14.2279 15 13.8191 15 13.3929V1.60714C15 1.1809 14.8307 0.772119 14.5293 0.470721C14.2279 0.169324 13.8191 0 13.3929 0ZM7.5 11.7857C7.28809 11.7857 7.08094 11.7229 6.90475 11.6051C6.72855 11.4874 6.59122 11.3201 6.51013 11.1243C6.42903 10.9285 6.40782 10.7131 6.44916 10.5053C6.4905 10.2974 6.59254 10.1065 6.74239 9.95667C6.89223 9.80683 7.08314 9.70479 7.29097 9.66344C7.49881 9.6221 7.71424 9.64332 7.91002 9.72441C8.1058 9.80551 8.27313 9.94284 8.39086 10.119C8.50859 10.2952 8.57143 10.5024 8.57143 10.7143C8.57143 10.9984 8.45855 11.271 8.25761 11.4719C8.05668 11.6728 7.78416 11.7857 7.5 11.7857ZM8.78036 3.80324L8.35179 8.08895C8.33858 8.22115 8.27673 8.34373 8.17823 8.43289C8.07973 8.52205 7.95161 8.57142 7.81875 8.57143H7.18259C7.04973 8.57142 6.92161 8.52205 6.82311 8.43289C6.72461 8.34373 6.66276 8.22115 6.64955 8.08895L6.22098 3.80324C6.21356 3.72888 6.22177 3.65379 6.24509 3.5828C6.26841 3.51181 6.30633 3.44648 6.3564 3.39101C6.40648 3.33555 6.4676 3.29117 6.53585 3.26073C6.60409 3.2303 6.67795 3.21448 6.75268 3.21429H8.24732C8.32216 3.21429 8.39617 3.22997 8.46457 3.26033C8.53298 3.29068 8.59427 3.33503 8.64449 3.39052C8.69471 3.446 8.73274 3.5114 8.75614 3.58248C8.77955 3.65357 8.78779 3.72877 8.78036 3.80324Z" fill="white"/>
<path d="M8.24713 3.21429H6.75248C6.67765 3.2143 6.60364 3.22998 6.53523 3.26034C6.46683 3.29069 6.40554 3.33504 6.35532 3.39053C6.3051 3.44601 6.26706 3.51141 6.24366 3.58249C6.22026 3.65358 6.21201 3.72878 6.21945 3.80325L6.64802 8.08896C6.66122 8.22116 6.72308 8.34374 6.82158 8.4329C6.92008 8.52206 7.0482 8.57143 7.18106 8.57144H7.81722C7.95008 8.57143 8.07819 8.52206 8.17669 8.4329C8.27519 8.34374 8.33705 8.22116 8.35025 8.08896L8.77882 3.80325C8.78625 3.72889 8.77804 3.6538 8.75472 3.58281C8.73139 3.51182 8.69348 3.44649 8.6434 3.39102C8.59333 3.33556 8.5322 3.29118 8.46396 3.26074C8.39571 3.23031 8.32185 3.21448 8.24713 3.21429ZM7.49981 9.64287C7.2879 9.64287 7.08075 9.7057 6.90455 9.82343C6.72836 9.94116 6.59103 10.1085 6.50993 10.3043C6.42884 10.5001 6.40762 10.7155 6.44896 10.9233C6.49031 11.1312 6.59235 11.3221 6.74219 11.4719C6.89203 11.6218 7.08294 11.7238 7.29078 11.7651C7.49862 11.8065 7.71405 11.7853 7.90982 11.7042C8.1056 11.6231 8.27294 11.4857 8.39067 11.3095C8.5084 11.1334 8.57123 10.9262 8.57123 10.7143C8.57123 10.4301 8.45835 10.1576 8.25742 9.95668C8.05649 9.75575 7.78397 9.64287 7.49981 9.64287Z" fill="white"/>
</svg>
