<svg width="20" height="20" viewBox="0 0 20 20" fill="none" xmlns="http://www.w3.org/2000/svg">
<path d="M9.99635 10.8751C9.81823 10.8751 9.67014 10.8152 9.55208 10.6954C9.43403 10.5756 9.375 10.4272 9.375 10.2501V3.04175C9.375 2.86466 9.43524 2.71623 9.55573 2.59644C9.67623 2.47664 9.82553 2.41675 10.0036 2.41675C10.1818 2.41675 10.3299 2.47664 10.4479 2.59644C10.566 2.71623 10.625 2.86466 10.625 3.04175V10.2501C10.625 10.4272 10.5648 10.5756 10.4443 10.6954C10.3238 10.8152 10.1745 10.8751 9.99635 10.8751ZM10 17.5417C8.95833 17.5417 7.98264 17.3438 7.07292 16.948C6.16319 16.5522 5.37153 16.0174 4.69792 15.3438C4.02431 14.6702 3.48958 13.8786 3.09375 12.9688C2.69792 12.0591 2.5 11.0834 2.5 10.0417C2.5 9.05564 2.69444 8.11467 3.08333 7.21883C3.47222 6.323 4.01389 5.52091 4.70833 4.81258C4.83333 4.68758 4.98958 4.62161 5.17708 4.61466C5.36458 4.60772 5.52083 4.66675 5.64583 4.79175C5.77083 4.91675 5.82292 5.06605 5.80208 5.23966C5.78125 5.41328 5.70833 5.56258 5.58333 5.68758C5 6.27091 4.54861 6.93411 4.22917 7.67717C3.90972 8.42022 3.75 9.20842 3.75 10.0417C3.75 11.7828 4.3564 13.2598 5.56919 14.4726C6.78199 15.6854 8.25893 16.2917 10 16.2917C11.7411 16.2917 13.218 15.6854 14.4308 14.4726C15.6436 13.2598 16.25 11.7828 16.25 10.0417C16.25 9.20842 16.0928 8.41811 15.7783 7.67083C15.4638 6.92354 15.0168 6.25551 14.4375 5.66675C14.3125 5.54175 14.2431 5.39244 14.2292 5.21883C14.2153 5.04522 14.2708 4.90286 14.3958 4.79175C14.5347 4.65286 14.6979 4.59383 14.8854 4.61466C15.0729 4.6355 15.2361 4.71536 15.375 4.85425C16.0556 5.56258 16.5799 6.36098 16.9479 7.24944C17.316 8.13789 17.5 9.06867 17.5 10.0417C17.5 11.0834 17.3021 12.0591 16.9062 12.9688C16.5104 13.8786 15.9757 14.6702 15.3021 15.3438C14.6285 16.0174 13.8368 16.5522 12.9271 16.948C12.0174 17.3438 11.0417 17.5417 10 17.5417Z" fill="white"/>
</svg>

