<svg id="Layer_1" xmlns="http://www.w3.org/2000/svg" viewBox="0 0 635.4 857.86"><defs><style>.cls-1{fill:#12ff80;}</style></defs><g><path class="cls-1" d="M193.93,678.47c-6.99-2.81-15.52-5.14-25.59-7.02h-.22c-9.79-1.73-17.14-3.31-22.03-4.75-4.9-1.44-8.75-3.38-11.55-5.83-2.81-2.45-4.21-5.83-4.21-10.15,0-6.33,2.37-11.16,7.13-14.47,4.75-3.31,11.01-4.97,18.79-4.97,8.5,0,15.37,2.16,20.63,6.48,4.72,3.88,7.61,8.81,8.67,14.78,.21,1.19,1.22,2.07,2.43,2.08l23.9,.18c1.47,.01,2.64-1.25,2.49-2.71-.8-7.99-3.43-15.25-7.9-21.79-4.97-7.27-11.81-12.92-20.52-16.95-8.71-4.03-18.61-6.05-29.69-6.05-10.51,0-19.98,1.94-28.4,5.83-8.42,3.89-14.97,9.29-19.65,16.2-4.68,6.91-7.02,14.69-7.02,23.32,0,9.5,2.08,17.13,6.26,22.89,4.17,5.76,9.64,10.12,16.41,13.07,6.77,2.95,14.9,5.29,24.4,7.02l1.08,.22c10.07,1.87,17.6,3.53,22.57,4.97,4.97,1.44,8.89,3.46,11.77,6.05,2.88,2.59,4.32,6.12,4.32,10.58,0,6.34-2.59,11.3-7.77,14.9-5.18,3.6-11.88,5.4-20.08,5.4-9.79,0-17.71-2.48-23.75-7.45-5.5-4.52-8.74-10.32-9.71-17.4-.17-1.22-1.18-2.15-2.42-2.17l-23.87-.36c-1.45-.02-2.63,1.2-2.51,2.65,.68,8.71,3.4,16.56,8.17,23.55,5.25,7.7,12.49,13.75,21.7,18.14,9.21,4.39,19.8,6.59,31.75,6.59,11.09,0,21.02-2.01,29.8-6.05,8.78-4.03,15.66-9.61,20.62-16.74,4.97-7.13,7.45-15.15,7.45-24.08,0-9.5-2.16-17.17-6.48-23-4.32-5.83-9.97-10.15-16.95-12.96Z"/><path class="cls-1" d="M340.68,736.67h-3.73c-2.16,0-3.85-.57-5.07-1.73-1.23-1.15-1.84-3.02-1.84-5.61v-41.25c0-13.1-4.18-23.07-12.52-29.91-8.35-6.84-18.18-10.32-33.59-10.32-14.55,0-25.9,3.16-34.83,9.35-8.14,5.64-13.04,13.38-14.72,23.2-.26,1.53,.89,2.93,2.44,2.93h21.95c1.1,0,2.08-.72,2.38-1.78,1-3.64,3.21-6.6,6.63-8.91,3.96-2.66,8.66-3.99,14.85-3.99,11.68,0,19.98,7.2,19.98,17.92v3.35c0,1.37-1.11,2.48-2.48,2.48h-19.88c-16.12,0-28.36,3.17-36.71,9.5-8.35,6.34-12.53,15.33-12.53,26.99,0,10.08,3.81,18,11.45,23.76,5.72,4.32,12.57,6.81,19.62,7.9,5.38,.83,10.91,1.14,16.31,.27,5.65-.9,10.24-3.23,14.84-6.56,4.13-2.98,7.57-6.8,10.71-11.46,1.53-2.63,5.55-1.58,5.55,1.47v3.66c0,6.65,5.39,12.05,12.04,12.05h19.15c1.37,0,2.48-1.11,2.48-2.48v-18.36c0-1.37-1.11-2.48-2.48-2.48Zm-38.07-22.24c0,5.33-1.12,9.97-3.35,13.93-4.68,8.3-13.04,12.63-22.46,12.63-5.47,0-9.86-1.29-13.17-3.89-3.31-2.59-4.97-6.05-4.97-10.37,0-4.89,1.84-8.67,5.51-11.34,3.67-2.66,8.89-4,15.66-4h20.31c1.37,0,2.48,1.11,2.48,2.48v.54Z"/><path class="cls-1" d="M420.69,608.88h-28.56c-15.07,0-27.28,12.21-27.28,27.28v11.99c0,1.37-1.11,2.48-2.48,2.48h-16.31c-1.37,0-2.48,1.11-2.48,2.48v18.58c0,1.37,1.11,2.48,2.48,2.48h16.31c1.37,0,2.48,1.11,2.48,2.48v80.87c0,1.37,1.11,2.48,2.48,2.48h22.25c1.37,0,2.48-1.11,2.48-2.48v-80.87c0-1.37,1.11-2.48,2.48-2.48h25.93c1.37,0,2.48-1.11,2.48-2.48v-18.58c0-1.37-1.11-2.48-2.48-2.48h-25.93c-1.37,0-2.48-1.11-2.48-2.48v-10.77c0-2.74,2.22-4.96,4.96-4.96h23.67c1.37,0,2.48-1.11,2.48-2.48v-18.58c0-1.37-1.11-2.48-2.48-2.48Z"/><path class="cls-1" d="M529.71,672.96c-4.82-8.06-11.41-14.25-19.76-18.57-8.35-4.32-18-6.54-28.94-6.54s-20.38,2.4-28.72,7.08c-8.35,4.68-14.83,11.3-19.44,19.87-4.61,8.57-6.91,18.61-6.91,30.13s2.38,21.13,7.13,29.69c4.75,8.57,11.55,15.15,20.41,19.76,8.85,4.61,19.25,6.91,31.21,6.91,9.21,0,17.46-1.69,24.73-5.08,7.27-3.38,13.13-8.02,17.6-13.93,3.82-5.06,6.43-10.59,7.82-16.59,.36-1.56-.81-3.06-2.42-3.06h-22.36c-1.07,0-2.01,.69-2.35,1.71-1.58,4.66-4.36,8.33-8.34,11.03-4.47,3.02-10.01,4.53-16.63,4.53-5.47,0-10.26-1.15-14.36-3.45-4.1-2.3-7.34-5.54-9.72-9.72-.94-1.65-1.71-3.39-2.32-5.19-.65-1.93-1.13-3.92-1.45-5.93-.11-.7-.22-1.41-.3-2.12-.17-1.46,.99-2.74,2.47-2.74h77.09c1.25,0,2.32-.93,2.46-2.17,.11-.91,.18-1.84,.22-2.8,.07-1.73,.11-3.31,.11-4.75,0-10.65-2.41-20.01-7.23-28.07Zm-23.16,19h-48.28c-1.58,0-2.78-1.47-2.43-3.02,.77-3.39,2.11-6.45,4.01-9.19,2.45-3.53,5.62-6.23,9.5-8.1,3.89-1.87,8.13-2.81,12.74-2.81,7.48,0,13.68,2.02,18.57,6.05,4.2,3.46,6.97,8.14,8.31,14.03,.35,1.55-.83,3.03-2.42,3.03Z"/></g><g><path class="cls-1" d="M511.2,317.24h-47.61c-14.22,0-25.74,11.53-25.74,25.74v69.1c0,14.22-11.53,25.74-25.74,25.74H222.7c-14.22,0-25.74,11.53-25.74,25.74v47.61c0,14.22,11.53,25.74,25.74,25.74h200.38c14.22,0,25.58-11.53,25.58-25.74v-38.2c0-14.22,11.53-24.31,25.74-24.31h36.8c14.22,0,25.74-11.53,25.74-25.74v-80.25c0-14.22-11.53-25.44-25.74-25.44Z"/><path class="cls-1" d="M196.95,222.65c0-14.22,11.53-25.74,25.74-25.74h189.3c14.22,0,25.74-11.53,25.74-25.74v-47.61c0-14.22-11.53-25.74-25.74-25.74H211.72c-14.22,0-25.74,11.53-25.74,25.74v36.68c0,14.22-11.53,25.74-25.74,25.74h-36.64c-14.22,0-25.74,11.53-25.74,25.74v80.33c0,14.22,11.57,25.16,25.79,25.16h47.61c14.22,0,25.74-11.53,25.74-25.74l-.04-68.82Z"/><rect class="cls-1" x="267.99" y="267.19" width="99.73" height="99.73" rx="27" ry="27"/></g></svg>
