<svg xmlns="http://www.w3.org/2000/svg" xmlns:xlink="http://www.w3.org/1999/xlink" version="1.1" width="64" height="64" viewBox="0 0 1000 1000" xml:space="preserve">
<desc>Created with Fabric.js 3.5.0</desc>
<defs>
</defs>
<rect x="0" y="0" width="100%" height="100%" fill="transparent"/>
<g transform="matrix(1 0 0 1 500 500)" id="384200">
<path style="stroke: none; stroke-width: 1; stroke-dasharray: none; stroke-linecap: butt; stroke-dashoffset: 0; stroke-linejoin: miter; stroke-miterlimit: 4; is-custom-font: none; font-file-url: none; fill: #f8f9fa; fill-rule: nonzero; opacity: 1;" vector-effect="non-scaling-stroke" transform=" translate(-256, -255.9973)" d="M 0 168 v -16 c 0 -13.255 10.745 -24 24 -24 h 360 V 80 c 0 -21.367 25.899 -32.042 40.971 -16.971 l 80 80 c 9.372 9.373 9.372 24.569 0 33.941 l -80 80 C 409.956 271.982 384 261.456 384 240 v -48 H 24 c -13.255 0 -24 -10.745 -24 -24 z m 488 152 H 128 v -48 c 0 -21.314 -25.862 -32.08 -40.971 -16.971 l -80 80 c -9.372 9.373 -9.372 24.569 0 33.941 l 80 80 C 102.057 463.997 128 453.437 128 432 v -48 h 360 c 13.255 0 24 -10.745 24 -24 v -16 c 0 -13.255 -10.745 -24 -24 -24 z" stroke-linecap="round"/>
</g>
</svg>
