<svg width="13" height="15" viewBox="0 0 13 15" fill="none" xmlns="http://www.w3.org/2000/svg">
<path d="M6.04078 7.5C6.45458 7.5 6.80881 7.35313 7.10348 7.05937C7.39815 6.76562 7.54548 6.4125 7.54548 6C7.54548 5.5875 7.39815 5.23438 7.10348 4.94062C6.80881 4.64687 6.45458 4.5 6.04078 4.5C5.62699 4.5 5.27276 4.64687 4.97809 4.94062C4.68341 5.23438 4.53608 5.5875 4.53608 6C4.53608 6.4125 4.68341 6.76562 4.97809 7.05937C5.27276 7.35313 5.62699 7.5 6.04078 7.5ZM6.04078 13.0125C7.57056 11.6125 8.70536 10.3406 9.44517 9.19687C10.185 8.05313 10.5549 7.0375 10.5549 6.15C10.5549 4.7875 10.1192 3.67188 9.24768 2.80312C8.37621 1.93438 7.30724 1.5 6.04078 1.5C4.77432 1.5 3.70536 1.93438 2.83389 2.80312C1.96241 3.67188 1.52667 4.7875 1.52667 6.15C1.52667 7.0375 1.89658 8.05313 2.63639 9.19687C3.3762 10.3406 4.511 11.6125 6.04078 13.0125ZM6.04078 15C4.02197 13.2875 2.51414 11.6969 1.51727 10.2281C0.520405 8.75937 0.0219727 7.4 0.0219727 6.15C0.0219727 4.275 0.626988 2.78125 1.83702 1.66875C3.04705 0.55625 4.44831 0 6.04078 0C7.63326 0 9.03451 0.55625 10.2445 1.66875C11.4546 2.78125 12.0596 4.275 12.0596 6.15C12.0596 7.4 11.5612 8.75937 10.5643 10.2281C9.56743 11.6969 8.05959 13.2875 6.04078 15Z" fill="white"/>
</svg>

