<svg width="31" height="39" viewBox="0 0 31 39" fill="none" xmlns="http://www.w3.org/2000/svg">
<path d="M13.625 23.25H17.375V17.625H23V13.875H17.375V8.25H13.625V13.875H8V17.625H13.625V23.25ZM15.5 38.25C10.4687 33.9688 6.71094 29.9922 4.22656 26.3203C1.74219 22.6484 0.5 19.25 0.5 16.125C0.5 11.4375 2.00781 7.70312 5.02344 4.92188C8.03906 2.14062 11.5312 0.75 15.5 0.75C19.4687 0.75 22.9609 2.14062 25.9766 4.92188C28.9922 7.70312 30.5 11.4375 30.5 16.125C30.5 19.25 29.2578 22.6484 26.7734 26.3203C24.2891 29.9922 20.5312 33.9688 15.5 38.25Z" fill="#CF3232"/>
</svg>
