<svg width="27" height="33" viewBox="0 0 27 33" fill="none" xmlns="http://www.w3.org/2000/svg">
<path d="M13.1759 31.4642L13.4999 31.7399L13.8239 31.4642C17.7565 28.1179 20.7155 24.9918 22.6823 22.085C24.648 19.1796 25.6666 16.4393 25.6666 13.8751C25.6666 10.1115 24.4505 7.06575 21.9873 4.79399C19.5529 2.5488 16.7169 1.41675 13.4999 1.41675C10.2829 1.41675 7.4469 2.5488 5.0125 4.79399C2.5493 7.06575 1.33325 10.1115 1.33325 13.8751C1.33325 16.4393 2.3518 19.1796 4.31757 22.085C6.28432 24.9918 9.24335 28.1179 13.1759 31.4642ZM13.4999 17.0001C14.4357 17.0001 15.2492 16.6611 15.9134 15.9969C16.5776 15.3327 16.9166 14.5192 16.9166 13.5834C16.9166 12.6477 16.5776 11.8342 15.9134 11.17C15.2492 10.5058 14.4357 10.1667 13.4999 10.1667C12.5642 10.1667 11.7507 10.5058 11.0865 11.17C10.4223 11.8342 10.0833 12.6477 10.0833 13.5834C10.0833 14.5192 10.4223 15.3327 11.0865 15.9969C11.7507 16.6611 12.5642 17.0001 13.4999 17.0001ZM19.6787 19.5286C18.3306 21.6193 16.2764 23.9557 13.4999 26.5381C10.7235 23.9557 8.66928 21.6193 7.32118 19.5286C5.91348 17.3455 5.24992 15.4662 5.24992 13.8751C5.24992 11.3425 6.0525 9.30565 7.63733 7.72082C9.22994 6.12821 11.1736 5.33341 13.4999 5.33341C15.8263 5.33341 17.7699 6.12821 19.3625 7.72082C20.9473 9.30565 21.7499 11.3425 21.7499 13.8751C21.7499 15.4662 21.0864 17.3455 19.6787 19.5286Z" fill="#707179" stroke="black"/>
<path d="M12 29L7.66987 24.7143H16.3301L12 29Z" fill="#707179"/>
<circle cx="12.7708" cy="14.3125" r="10.9375" fill="#707179"/>
</svg>
