<svg width="16" height="17" viewBox="0 0 16 17" fill="none" xmlns="http://www.w3.org/2000/svg">
<path d="M7.37012 16.6294L5.34131 15.4722C5.16064 15.3696 5.04834 15.2378 5.00439 15.0767C4.96045 14.9155 4.97998 14.7568 5.06299 14.6006C5.146 14.4492 5.27295 14.354 5.44385 14.3149C5.61963 14.2808 5.79297 14.3125 5.96387 14.4102L7.38477 15.2231V13.7363C7.38477 13.5361 7.44092 13.3726 7.55322 13.2456C7.67041 13.1138 7.81934 13.0479 8 13.0479C8.17578 13.0479 8.31982 13.1138 8.43213 13.2456C8.54932 13.3726 8.60791 13.5361 8.60791 13.7363V15.2231L10.0288 14.4102C10.1997 14.3125 10.3706 14.2808 10.5415 14.3149C10.7173 14.354 10.8467 14.4492 10.9297 14.6006C11.0127 14.7568 11.0322 14.9155 10.9883 15.0767C10.9443 15.2378 10.8345 15.3696 10.6587 15.4722L8.62988 16.6294C8.20996 16.8638 7.79004 16.8638 7.37012 16.6294ZM2.56543 13.8975L1.61328 13.3628C1.27148 13.1675 1.01025 12.9478 0.82959 12.7036C0.653809 12.4546 0.565918 12.0591 0.565918 11.5171V10.3672C0.565918 10.1719 0.619629 10.0083 0.727051 9.87646C0.839355 9.74463 0.983398 9.67871 1.15918 9.67871C1.33008 9.67871 1.47168 9.74463 1.58398 9.87646C1.69629 10.0083 1.75244 10.1719 1.75244 10.3672V11.3193L2.93164 10.6528C3.09766 10.5601 3.26367 10.5356 3.42969 10.5796C3.5957 10.6187 3.72754 10.7114 3.8252 10.8579C3.92285 11.0044 3.94238 11.1655 3.88379 11.3413C3.8252 11.5122 3.70557 11.6465 3.5249 11.7441L2.39697 12.396L3.18799 12.8354C3.34912 12.9282 3.45654 13.0576 3.51025 13.2236C3.56885 13.3896 3.55664 13.5508 3.47363 13.707C3.39062 13.8682 3.26123 13.9658 3.08545 14C2.91455 14.0293 2.74121 13.9951 2.56543 13.8975ZM1.15918 8.09668C0.988281 8.09668 0.84668 8.0332 0.734375 7.90625C0.62207 7.77441 0.565918 7.6084 0.565918 7.4082V5.71631C0.565918 5.31104 0.644043 4.98389 0.800293 4.73486C0.961426 4.48584 1.19092 4.27344 1.48877 4.09766L3.08545 3.18945C3.2417 3.10156 3.40039 3.07227 3.56152 3.10156C3.72754 3.13086 3.85938 3.21875 3.95703 3.36523C4.02051 3.46777 4.0498 3.57764 4.04492 3.69482C4.04004 3.80713 4.00342 3.91699 3.93506 4.02441C3.87158 4.12695 3.77881 4.2124 3.65674 4.28076L2.41895 4.98389L3.68604 5.70898C3.8667 5.80664 3.98877 5.94336 4.05225 6.11914C4.11572 6.29004 4.09863 6.44873 4.00098 6.59521C3.89844 6.7417 3.76416 6.83447 3.59814 6.87354C3.43213 6.9126 3.26855 6.88574 3.10742 6.79297L1.75244 6.0166V7.4082C1.75244 7.6084 1.69629 7.77441 1.58398 7.90625C1.47656 8.0332 1.33496 8.09668 1.15918 8.09668ZM8 4.19287C7.81934 4.19287 7.67041 4.12939 7.55322 4.00244C7.44092 3.87061 7.38477 3.70703 7.38477 3.51172V2.14941L6.35205 2.74268C6.19092 2.83545 6.02002 2.86475 5.83936 2.83057C5.66357 2.79639 5.53418 2.70361 5.45117 2.55225C5.39746 2.44971 5.37061 2.34473 5.37061 2.2373C5.37549 2.12988 5.40723 2.02734 5.46582 1.92969C5.52441 1.83203 5.6123 1.74902 5.72949 1.68066L7.31885 0.779785C7.56299 0.643066 7.79004 0.574707 8 0.574707C8.20996 0.574707 8.43457 0.643066 8.67383 0.779785L10.2632 1.68066C10.3804 1.74902 10.4683 1.83203 10.5269 1.92969C10.5903 2.02734 10.6221 2.12988 10.6221 2.2373C10.627 2.34473 10.6001 2.44971 10.5415 2.55225C10.4634 2.70361 10.334 2.79639 10.1533 2.83057C9.97754 2.86475 9.80664 2.83545 9.64062 2.74268L8.60791 2.14941V3.51172C8.60791 3.70703 8.54932 3.87061 8.43213 4.00244C8.31982 4.12939 8.17578 4.19287 8 4.19287ZM14.8335 8.09668C14.6626 8.09668 14.521 8.0332 14.4087 7.90625C14.2964 7.77441 14.2402 7.6084 14.2402 7.4082V6.0166L12.8853 6.79297C12.729 6.88574 12.5654 6.9126 12.3945 6.87354C12.2285 6.83447 12.0967 6.7417 11.999 6.59521C11.9014 6.44873 11.8818 6.29004 11.9404 6.11914C12.0039 5.94336 12.126 5.80664 12.3066 5.70898L13.5811 4.98389L12.3433 4.28076C12.2163 4.2124 12.1187 4.12695 12.0503 4.02441C11.9868 3.91699 11.9526 3.80713 11.9478 3.69482C11.9478 3.57764 11.9795 3.46777 12.043 3.36523C12.1406 3.21875 12.27 3.13086 12.4312 3.10156C12.5972 3.07227 12.7559 3.10156 12.9072 3.18945L14.5112 4.09766C14.853 4.29297 15.0898 4.50293 15.2217 4.72754C15.3584 4.94727 15.4268 5.27686 15.4268 5.71631V7.4082C15.4268 7.6084 15.3706 7.77441 15.2583 7.90625C15.146 8.0332 15.0044 8.09668 14.8335 8.09668ZM13.4272 13.8975C13.2563 13.9951 13.083 14.0293 12.9072 14C12.7363 13.9658 12.6094 13.8682 12.5264 13.707C12.4434 13.5508 12.4287 13.3896 12.4824 13.2236C12.5361 13.0576 12.6436 12.9282 12.8047 12.8354L13.5884 12.396L12.4678 11.7441C12.292 11.6465 12.1748 11.5122 12.1162 11.3413C12.0576 11.1655 12.0771 11.0044 12.1748 10.8579C12.2725 10.7114 12.4019 10.6187 12.563 10.5796C12.729 10.5356 12.895 10.5601 13.061 10.6528L14.2402 11.3267V10.3672C14.2402 10.1719 14.2964 10.0083 14.4087 9.87646C14.5259 9.74463 14.6675 9.67871 14.8335 9.67871C15.0093 9.67871 15.1509 9.74463 15.2583 9.87646C15.3706 10.0083 15.4268 10.1719 15.4268 10.3672V11.5171C15.4268 12.0591 15.3389 12.4546 15.1631 12.7036C14.9873 12.9478 14.7261 13.1675 14.3794 13.3628L13.4272 13.8975ZM8 11.5391C7.81934 11.5391 7.67041 11.4731 7.55322 11.3413C7.44092 11.2095 7.38477 11.0459 7.38477 10.8506V9.23193L5.8833 8.36768C5.70264 8.27002 5.58301 8.13574 5.52441 7.96484C5.4707 7.78906 5.49268 7.62793 5.59033 7.48145C5.68799 7.33008 5.81738 7.23486 5.97852 7.1958C6.14453 7.15674 6.31055 7.18359 6.47656 7.27637L8 8.14062L9.52344 7.27637C9.68457 7.18359 9.8457 7.15674 10.0068 7.1958C10.1729 7.23486 10.3047 7.33008 10.4023 7.48145C10.5 7.62793 10.5195 7.78906 10.4609 7.96484C10.4072 8.13574 10.2925 8.27002 10.1167 8.36768L8.60791 9.23193V10.8506C8.60791 11.0459 8.54932 11.2095 8.43213 11.3413C8.31982 11.4731 8.17578 11.5391 8 11.5391Z" fill="white"/>
</svg>

