<?xml version="1.0" encoding="UTF-8"?>
<svg xmlns="http://www.w3.org/2000/svg" xmlns:xlink="http://www.w3.org/1999/xlink" width="48px" height="48px" viewBox="0 0 48 48" version="1.1">
<g id="surface1">
<path style=" stroke:none;fill-rule:nonzero;fill:#f8f9fa;fill-opacity:1;" d="M 9 42 C 8.199219 42 7.5 41.699219 6.898438 41.101562 C 6.300781 40.5 6 39.800781 6 39 L 6 9 C 6 8.199219 6.300781 7.5 6.898438 6.898438 C 7.5 6.300781 8.199219 6 9 6 L 39 6 C 39.800781 6 40.5 6.300781 41.101562 6.898438 C 41.699219 7.5 42 8.199219 42 9 L 42 39 C 42 39.800781 41.699219 40.5 41.101562 41.101562 C 40.5 41.699219 39.800781 42 39 42 L 28.5 42 L 28.5 39 L 39 39 L 39 12 L 9 12 L 9 39 L 19.5 39 L 19.5 42 Z M 22.5 42 L 22.5 27.800781 L 18.351562 31.949219 L 16.199219 29.800781 L 24 22 L 31.800781 29.800781 L 29.648438 31.949219 L 25.5 27.800781 L 25.5 42 Z M 22.5 42 "/>
</g>
</svg>
