<svg width="19" height="13" viewBox="0 0 19 13" fill="none" xmlns="http://www.w3.org/2000/svg">
<path d="M3.39697 12.7324C2.50342 12.7324 1.80273 12.4858 1.29492 11.9927C0.791992 11.4946 0.540527 10.7988 0.540527 9.90527V3.51123C0.540527 2.62256 0.801758 1.93164 1.32422 1.43848C1.85156 0.94043 2.54248 0.691406 3.39697 0.691406H11.0508C11.9443 0.691406 12.6426 0.94043 13.1455 1.43848C13.6533 1.93164 13.9072 2.62256 13.9072 3.51123V9.90527C13.9072 10.7988 13.6533 11.4946 13.1455 11.9927C12.6426 12.4858 11.9443 12.7324 11.0508 12.7324H3.39697ZM3.60205 11.6265H10.8457C11.4463 11.6265 11.9102 11.4702 12.2373 11.1577C12.5645 10.8452 12.728 10.3716 12.728 9.73682V3.68701C12.728 3.05225 12.5645 2.57861 12.2373 2.26611C11.9102 1.94873 11.4463 1.79004 10.8457 1.79004H3.60205C3.00146 1.79004 2.5376 1.94873 2.21045 2.26611C1.8833 2.57861 1.71973 3.05225 1.71973 3.68701V9.73682C1.71973 10.3716 1.8833 10.8452 2.21045 11.1577C2.5376 11.4702 3.00146 11.6265 3.60205 11.6265ZM13.7388 4.66113L16.6758 2.17822C16.8223 2.05615 16.9736 1.9585 17.1299 1.88525C17.2861 1.80713 17.4399 1.76807 17.5913 1.76807C17.9136 1.76807 18.1724 1.87549 18.3677 2.09033C18.563 2.30518 18.6606 2.5835 18.6606 2.92529V10.4985C18.6606 10.8403 18.563 11.1187 18.3677 11.3335C18.1724 11.5483 17.9136 11.6558 17.5913 11.6558C17.4399 11.6558 17.2861 11.6191 17.1299 11.5459C16.9736 11.4678 16.8223 11.3677 16.6758 11.2456L13.7388 8.75537V7.37109L17.2251 10.2495C17.2593 10.269 17.2886 10.2886 17.313 10.3081C17.3423 10.3228 17.3716 10.3301 17.4009 10.3301C17.4839 10.3301 17.5254 10.2739 17.5254 10.1616V3.26221C17.5254 3.14502 17.4839 3.08643 17.4009 3.08643C17.3716 3.08643 17.3423 3.09619 17.313 3.11572C17.2886 3.13037 17.2593 3.1499 17.2251 3.17432L13.7388 6.05273V4.66113Z" fill="white"/>
</svg>

