<svg width="850" height="786" viewBox="0 0 850 786" fill="none" xmlns="http://www.w3.org/2000/svg">
<path fill-rule="evenodd" clip-rule="evenodd" d="M447 0C475.167 0 498 22.8335 498 51V130H577C605.167 130 628 152.833 628 181C628 209.167 605.167 232 577 232H498V311C498 339.167 475.167 362 447 362C418.833 362 396 339.167 396 311V232H317C288.833 232 266 209.167 266 181C266 152.833 288.833 130 317 130H396V51C396 22.8335 418.833 0 447 0ZM0 608L174 488C195.333 470 264.4 434.8 370 438C475.6 441.2 555.333 439.333 582 438C604 441.333 647.6 456 646 488C644 528 588 560 560 558C537.6 556.4 465.333 557.333 432 558L408 568L432 596L560 608C581.333 598.667 632 575.6 664 558C671.756 553.734 679.137 549.017 686.448 544.344C716.838 524.92 746.023 506.266 796 524C852.458 544.033 850.871 552.458 848.626 564.375C848.406 565.545 848.179 566.749 848 568C846 582 822 636 710 692C598 748 510 786 432 786C369.6 786 251.333 759.333 200 746C194 759.333 174 786 142 786C110 786 99.3333 775.333 98 770L0 648V608Z" fill="#f8f9fa"/>
</svg>
