<svg xmlns="http://www.w3.org/2000/svg" height="24" viewBox="0 -960 960 960" width="24" fill="#fff"><path d="M426.999-426.999H233.782q-22.087 0-37.544-15.457-15.456-15.457-15.456-37.544 0-22.087 15.456-37.544 15.457-15.457 37.544-15.457h193.217v-193.217q0-22.087 15.457-37.544 15.457-15.456 37.544-15.456 22.087 0 37.544 15.456 15.457 15.457 15.457 37.544v193.217h193.217q22.087 0 37.544 15.457 15.456 15.457 15.456 37.544 0 22.087-15.456 37.544-15.457 15.457-37.544 15.457H533.001v193.217q0 22.087-15.457 37.544-15.457 15.456-37.544 15.456-22.087 0-37.544-15.456-15.457-15.457-15.457-37.544v-193.217Z"/></svg>
