<svg width="22" height="22" viewBox="0 0 22 22" fill="none" xmlns="http://www.w3.org/2000/svg">
<path d="M12.273 11.0002L16.1191 7.15407L16.9122 6.36092C17.0293 6.24391 17.0293 6.05378 16.9122 5.93678L16.0636 5.08813C15.9466 4.97112 15.7565 4.97112 15.6395 5.08813L11.0002 9.7274L6.36092 5.08775C6.24391 4.97075 6.05378 4.97075 5.93678 5.08775L5.08775 5.9364C4.97075 6.05341 4.97075 6.24354 5.08775 6.36054L9.7274 11.0002L5.08775 15.6395C4.97075 15.7565 4.97075 15.9466 5.08775 16.0636L5.9364 16.9122C6.05341 17.0293 6.24354 17.0293 6.36054 16.9122L11.0002 12.273L14.8463 16.1191L15.6395 16.9122C15.7565 17.0293 15.9466 17.0293 16.0636 16.9122L16.9122 16.0636C17.0293 15.9466 17.0293 15.7565 16.9122 15.6395L12.273 11.0002Z" fill="white"/>
</svg>
