<svg width="56" height="51" viewBox="0 0 56 51" fill="none" xmlns="http://www.w3.org/2000/svg">
<path d="M9.33336 0H46.6666V7.28572H56L54.1334 14.5714H52.2666V43.7142C53.298 43.7142 54.1334 44.5294 54.1334 45.5357V47.3572C55.1647 47.3572 56 48.1723 56 49.1786V51H37.3334V49.1786C37.3334 48.1723 38.1687 47.3572 39.2 47.3572V45.5357C39.2 44.5294 40.0353 43.7142 41.0666 43.7142V28.9868C41.0609 21.9499 35.213 16.2472 28 16.2472C20.7849 16.2472 14.9358 21.9532 14.9334 28.9929V43.7142C15.9647 43.7142 16.8 44.5294 16.8 45.5357V47.3572C17.8313 47.3572 18.6666 48.1723 18.6666 49.1786V51H0V49.1786C0 48.1723 0.835334 47.3572 1.86666 47.3572V45.5357C1.86666 44.5294 2.702 43.7142 3.73334 43.7142V14.5714H1.86666L0 7.28572H9.33336V0Z" fill="white"/>
</svg>

