<?xml version="1.0" encoding="UTF-8"?>
<svg width="128pt" height="128pt" version="1.1" viewBox="0 0 128 128" xmlns="http://www.w3.org/2000/svg">
 <g fill="#f8f9fa">
  <path d="m64 8c-14.852 0-29.098 5.8984-39.598 16.402-10.504 10.5-16.402 24.746-16.402 39.598s5.8984 29.098 16.402 39.598c10.5 10.504 24.746 16.402 39.598 16.402s29.098-5.8984 39.598-16.402c10.504-10.5 16.402-24.746 16.402-39.598-0.015625-14.848-5.9219-29.082-16.418-39.582-10.5-10.496-24.734-16.402-39.582-16.418zm0 104c-12.73 0-24.938-5.0586-33.941-14.059-9-9.0039-14.059-21.211-14.059-33.941s5.0586-24.938 14.059-33.941c9.0039-9 21.211-14.059 33.941-14.059s24.938 5.0586 33.941 14.059c9 9.0039 14.059 21.211 14.059 33.941-0.015625 12.727-5.0742 24.926-14.074 33.926s-21.199 14.059-33.926 14.074z"/>
  <path d="m64 56c-2.2109 0-4 1.7891-4 4v28c0 2.2109 1.7891 4 4 4s4-1.7891 4-4v-28c0-1.0625-0.42188-2.0781-1.1719-2.8281s-1.7656-1.1719-2.8281-1.1719z"/>
  <path d="m64 36c-2.2109 0-4 1.7891-4 4v4c0 2.2109 1.7891 4 4 4s4-1.7891 4-4v-4c0-1.0625-0.42188-2.0781-1.1719-2.8281s-1.7656-1.1719-2.8281-1.1719z"/>
 </g>
</svg>
