<svg width="40" height="40" viewBox="0 0 68 68" fill="none" xmlns="http://www.w3.org/2000/svg"><path d="M28.7569 66.7557L1.78656 51.1845C1.17918 50.8336 0.804932 50.1857 0.804932 49.4839V18.3416C0.804932 17.6398 1.17918 16.9919 1.78656 16.641L28.7569 1.06984C29.3642 0.718907 30.1127 0.718907 30.7201 1.06984L57.6904 16.641C58.2978 16.9919 58.6721 17.6398 58.6721 18.3416V49.4839C58.6721 50.1857 58.2978 50.8336 57.6904 51.1845L30.7201 66.7557C30.1127 67.1066 29.3642 67.1066 28.7569 66.7557ZM6.69471 48.3513L28.7569 61.0892C29.3642 61.4401 30.1127 61.4401 30.7201 61.0892L52.7823 48.3513C53.3897 48.0004 53.7639 47.3525 53.7639 46.6506V21.1761C53.7639 20.4742 53.3897 19.8263 52.7823 19.4754L30.7201 6.73754C30.1127 6.3866 29.3642 6.3866 28.7569 6.73754L6.69471 19.4754C6.08733 19.8263 5.71308 20.4742 5.71308 21.1761V46.6506C5.71308 47.3525 6.08733 48.0004 6.69471 48.3513Z" fill="url(#paint0_linear_1465_950)"></path><path d="M28.7565 11.2432L10.5964 21.7282C9.98899 22.0792 9.61475 22.727 9.61475 23.4289V43.2652C9.61475 44.6677 10.3632 45.9647 11.578 46.6653L13.7867 47.9402C14.1143 48.1292 14.5229 47.8936 14.5229 47.5157V26.2634C14.5229 25.5615 14.8971 24.9136 15.5045 24.5627L28.7565 16.9121C29.3639 16.5612 30.1124 16.5612 30.7198 16.9121L43.9718 24.5627C44.5792 24.9136 44.9534 25.5615 44.9534 26.2634V41.5658C44.9534 42.2676 44.5792 42.9155 43.9718 43.2664L30.7198 50.917C30.1124 51.268 29.3639 51.268 28.7565 50.917L24.3392 48.3672C23.7318 48.0163 23.3576 47.3684 23.3576 46.6666V31.3642C23.3576 30.6623 23.7318 30.0144 24.3392 29.6635L28.7565 27.1137C29.3639 26.7628 30.1124 26.7628 30.7198 27.1137L35.1371 29.6635C35.7445 30.0144 36.1188 30.6623 36.1188 31.3642V36.465C36.1188 37.1668 35.7445 37.8147 35.1371 38.1657L32.9285 39.4405C32.6008 39.6295 32.1922 39.3939 32.1922 39.016V35.8785V33.6661C32.1922 32.9642 31.818 32.3164 31.2106 31.9654L30.229 31.3985C29.9247 31.2231 29.5517 31.2231 29.2474 31.3985L28.0203 32.1065C27.5651 32.3691 27.2841 32.8562 27.2841 33.3814V33.9127V44.4199C27.2841 45.1242 27.662 45.7745 28.2731 46.1242L28.7467 46.3942C29.3529 46.7402 30.0977 46.739 30.7026 46.3892L40.0453 40.9952C40.6527 40.6443 41.0269 39.9964 41.0269 39.2945V28.526C41.0269 27.8242 40.6527 27.1763 40.0453 26.8254L30.7198 21.4411C30.1124 21.0902 29.3639 21.0902 28.7565 21.4411L19.431 26.8254C18.8237 27.1763 18.4494 27.8242 18.4494 28.526V49.4949C18.4494 50.1968 18.8237 50.8446 19.431 51.1956L28.7565 56.5798C29.3639 56.9307 30.1124 56.9307 30.7198 56.5798L48.88 46.0948C49.4873 45.7438 49.8616 45.0959 49.8616 44.3941V23.4252C49.8616 22.7234 49.4873 22.0755 48.88 21.7246L30.7198 11.2395C30.1124 10.8886 29.3639 10.8886 28.7565 11.2395V11.2432Z" fill="#4c5f73"></path><defs><linearGradient id="paint0_linear_1465_950" x1="13.1406" y1="2.18744" x2="43.2173" y2="65.9764" gradientUnits="userSpaceOnUse"><stop stop-color="#4c5f73"></stop><stop offset="1" stop-color="#4c5f73"></stop></linearGradient><linearGradient id="paint1_linear_1465_950" x1="18.1943" y1="11.9328" x2="38.9759" y2="56.1852" gradientUnits="userSpaceOnUse"><stop stop-color="#4c5f73"></stop><stop offset="1" stop-color="#4c5f73"></stop></linearGradient></defs></svg>
