<svg width="21" height="20" viewBox="0 0 21 20" fill="none" xmlns="http://www.w3.org/2000/svg">
<g clip-path="url(#clip0_6163_98)">
<path d="M11.2136 15.5775L4.71246 9.29043C4.395 8.98342 4.23626 8.62302 4.23626 8.20922C4.23626 7.79542 4.395 7.43502 4.71246 7.128L8.31502 3.64409C8.63248 3.33708 9.00516 3.18357 9.43305 3.18357C9.86094 3.18357 10.2336 3.33708 10.5511 3.64409L17.0522 9.93115C17.3697 10.2382 17.5284 10.5986 17.5284 11.0124C17.5284 11.4262 17.3697 11.7866 17.0522 12.0936L13.4497 15.5775C13.1322 15.8845 12.7595 16.038 12.3317 16.038C11.9038 16.038 11.5311 15.8845 11.2136 15.5775ZM12.3317 14.4162L15.8514 11.0124L9.43305 4.8054L5.91332 8.20922L12.3317 14.4162ZM10.8824 19.2216C9.51587 19.2216 8.22875 18.9713 7.021 18.4707C5.81324 17.9702 4.75732 17.2827 3.85323 16.4084C2.94914 15.5341 2.2383 14.513 1.72069 13.345C1.20308 12.177 0.944275 10.9323 0.944275 9.61079H2.60062C2.60062 10.5585 2.76626 11.4662 3.09753 12.3338C3.4288 13.2015 3.88774 13.9824 4.47436 14.6765C5.06099 15.3706 5.76148 15.9613 6.57585 16.4485C7.39022 16.9357 8.28051 17.2794 9.24671 17.4796L7.07276 15.3773L8.2322 14.256L13.1184 18.9813C12.7595 19.0614 12.3903 19.1215 12.0107 19.1615C11.6312 19.2016 11.255 19.2216 10.8824 19.2216ZM19.1641 9.61079C19.1641 8.66306 18.9985 7.75538 18.6672 6.88773C18.3359 6.02009 17.877 5.23922 17.2903 4.5451C16.7037 3.85099 16.0032 3.26033 15.1889 2.77311C14.3745 2.2859 13.4842 1.94218 12.518 1.74196L14.692 3.84432L13.5325 4.96558L8.64629 0.24027C9.00516 0.16018 9.37439 0.100112 9.75397 0.0600675C10.1335 0.0200225 10.5097 0 10.8824 0C12.2488 0 13.536 0.250281 14.7437 0.750843C15.9515 1.25141 17.0074 1.93884 17.9115 2.81316C18.8156 3.68747 19.5264 4.70862 20.044 5.8766C20.5616 7.04458 20.8204 8.28931 20.8204 9.61079H19.1641Z" fill="white"/>
</g>
<defs>
<clipPath id="clip0_6163_98">
<rect width="19.8762" height="19.2216" fill="white" transform="translate(0.944275)"/>
</clipPath>
</defs>
</svg>

