<svg width="10" height="10" viewBox="0 0 10 10" fill="none" xmlns="http://www.w3.org/2000/svg">
<path fill-rule="evenodd" clip-rule="evenodd" d="M4.51721 0.249565C4.68308 0.414968 4.76532 0.614951 4.76578 0.849036C4.76532 1.08312 4.68308 1.2831 4.51721 1.44851L2.89452 3.0712H8.18423C8.41831 3.0712 8.6183 3.1539 8.7837 3.31977C8.9491 3.48517 9.03227 3.68515 9.03227 3.91924C9.03227 4.15332 8.94957 4.35331 8.7837 4.51871C8.6183 4.68411 8.41831 4.76728 8.18423 4.76728L0.848042 4.76634C0.613956 4.76634 0.413973 4.68364 0.248571 4.51777C0.0827014 4.35237 0 4.15239 0 3.9183C0 3.68422 0.0827026 3.48423 0.248571 3.31883L3.31835 0.248571C3.48376 0.0827013 3.68374 0 3.91782 0C4.15238 0.000934427 4.35181 0.083698 4.51721 0.249565Z" fill="white"/>
<path fill-rule="evenodd" clip-rule="evenodd" d="M0.951823 6.92973C0.717738 6.92973 0.517755 6.84702 0.352352 6.68116C0.186949 6.51575 0.104248 6.31577 0.104248 6.08168C0.104248 5.8476 0.186951 5.64762 0.352352 5.48221C0.517755 5.31681 0.717738 5.23364 0.951823 5.23364H8.28095C8.51504 5.23364 8.71502 5.31634 8.88042 5.48221C9.04583 5.64762 9.12899 5.8476 9.12899 6.08168C9.12899 6.31577 9.04629 6.51529 8.88042 6.68116L5.81016 9.75142C5.64476 9.91682 5.44478 9.99999 5.21069 9.99999C4.97661 9.99999 4.77662 9.91728 4.61122 9.75142C4.44582 9.58601 4.36265 9.38603 4.36265 9.15195C4.36265 8.91786 4.44535 8.71788 4.61122 8.55247L6.23391 6.92979L0.951823 6.92973Z" fill="white"/>
</svg>

